<mxfile host="app.diagrams.net" modified="2023-06-27T18:26:12.283Z" agent="Mozilla/5.0 (Windows NT 10.0; Win64; x64) AppleWebKit/537.36 (KHTML, like Gecko) Chrome/114.0.0.0 Safari/537.36" etag="ShLSsY9FhpNUllTK4dcY" version="21.5.1" type="device">
  <diagram name="Page-1" id="2YBvvXClWsGukQMizWep">
    <mxGraphModel dx="1322" dy="628" grid="1" gridSize="10" guides="1" tooltips="1" connect="1" arrows="1" fold="1" page="1" pageScale="1" pageWidth="850" pageHeight="1100" math="0" shadow="0">
      <root>
        <mxCell id="0" />
        <mxCell id="1" parent="0" />
        <mxCell id="OW4Vf64IC7HSJz9U2EWm-50" value="" style="rounded=0;whiteSpace=wrap;html=1;strokeColor=default;fontFamily=Helvetica;fontSize=12;fontColor=default;fillColor=default;" vertex="1" parent="1">
          <mxGeometry x="100" y="470" width="570" height="220" as="geometry" />
        </mxCell>
        <mxCell id="OW4Vf64IC7HSJz9U2EWm-51" value="alt" style="rounded=0;whiteSpace=wrap;html=1;strokeColor=default;fontFamily=Helvetica;fontSize=12;fontColor=default;fillColor=default;" vertex="1" parent="1">
          <mxGeometry x="100" y="470" width="80" height="30" as="geometry" />
        </mxCell>
        <mxCell id="OW4Vf64IC7HSJz9U2EWm-3" value="dataValidator: DataValidator" style="rounded=0;whiteSpace=wrap;html=1;strokeColor=default;fontFamily=Helvetica;fontSize=12;fontColor=default;fillColor=default;" vertex="1" parent="1">
          <mxGeometry x="420" y="40" width="110" height="30" as="geometry" />
        </mxCell>
        <mxCell id="OW4Vf64IC7HSJz9U2EWm-4" value="interestCalculator:&amp;nbsp;&lt;br&gt;InterestCalculator" style="rounded=0;whiteSpace=wrap;html=1;strokeColor=default;fontFamily=Helvetica;fontSize=12;fontColor=default;fillColor=default;" vertex="1" parent="1">
          <mxGeometry x="580" y="40" width="110" height="30" as="geometry" />
        </mxCell>
        <mxCell id="OW4Vf64IC7HSJz9U2EWm-5" value="calculatePayment: CalculatePayment" style="rounded=0;whiteSpace=wrap;html=1;strokeColor=default;fontFamily=Helvetica;fontSize=12;fontColor=default;fillColor=default;" vertex="1" parent="1">
          <mxGeometry x="80" y="40" width="110" height="30" as="geometry" />
        </mxCell>
        <mxCell id="OW4Vf64IC7HSJz9U2EWm-6" value="IO" style="rounded=0;whiteSpace=wrap;html=1;strokeColor=default;fontFamily=Helvetica;fontSize=12;fontColor=default;fillColor=default;" vertex="1" parent="1">
          <mxGeometry x="230" y="40" width="120" height="30" as="geometry" />
        </mxCell>
        <mxCell id="OW4Vf64IC7HSJz9U2EWm-7" value="" style="endArrow=none;dashed=1;html=1;rounded=0;fontFamily=Helvetica;fontSize=12;fontColor=default;entryX=0.471;entryY=1.106;entryDx=0;entryDy=0;entryPerimeter=0;" edge="1" parent="1" target="OW4Vf64IC7HSJz9U2EWm-5">
          <mxGeometry width="50" height="50" relative="1" as="geometry">
            <mxPoint x="130" y="720" as="sourcePoint" />
            <mxPoint x="131.79999999999995" y="79.99999999999999" as="targetPoint" />
          </mxGeometry>
        </mxCell>
        <mxCell id="OW4Vf64IC7HSJz9U2EWm-8" value="" style="endArrow=none;dashed=1;html=1;rounded=0;fontFamily=Helvetica;fontSize=12;fontColor=default;entryX=0.5;entryY=1;entryDx=0;entryDy=0;" edge="1" parent="1">
          <mxGeometry width="50" height="50" relative="1" as="geometry">
            <mxPoint x="635" y="710" as="sourcePoint" />
            <mxPoint x="634.76" y="70" as="targetPoint" />
          </mxGeometry>
        </mxCell>
        <mxCell id="OW4Vf64IC7HSJz9U2EWm-9" value="" style="endArrow=none;dashed=1;html=1;rounded=0;fontFamily=Helvetica;fontSize=12;fontColor=default;entryX=0.5;entryY=1;entryDx=0;entryDy=0;" edge="1" parent="1">
          <mxGeometry width="50" height="50" relative="1" as="geometry">
            <mxPoint x="475" y="710" as="sourcePoint" />
            <mxPoint x="474.76" y="70" as="targetPoint" />
          </mxGeometry>
        </mxCell>
        <mxCell id="OW4Vf64IC7HSJz9U2EWm-10" value="" style="endArrow=none;dashed=1;html=1;rounded=0;fontFamily=Helvetica;fontSize=12;fontColor=default;entryX=0.5;entryY=1;entryDx=0;entryDy=0;" edge="1" parent="1">
          <mxGeometry width="50" height="50" relative="1" as="geometry">
            <mxPoint x="300" y="720" as="sourcePoint" />
            <mxPoint x="300" y="70" as="targetPoint" />
          </mxGeometry>
        </mxCell>
        <mxCell id="OW4Vf64IC7HSJz9U2EWm-13" value="" style="ellipse;html=1;shape=startState;fillColor=#000000;strokeColor=#ff0000;fontFamily=Helvetica;fontSize=12;fontColor=default;" vertex="1" parent="1">
          <mxGeometry x="30" y="110" width="30" height="30" as="geometry" />
        </mxCell>
        <mxCell id="OW4Vf64IC7HSJz9U2EWm-14" value="" style="edgeStyle=orthogonalEdgeStyle;html=1;verticalAlign=bottom;endArrow=open;endSize=8;strokeColor=#ff0000;rounded=0;fontFamily=Helvetica;fontSize=12;fontColor=default;exitX=0.983;exitY=0.605;exitDx=0;exitDy=0;exitPerimeter=0;" edge="1" source="OW4Vf64IC7HSJz9U2EWm-13" parent="1">
          <mxGeometry relative="1" as="geometry">
            <mxPoint x="130" y="128" as="targetPoint" />
            <Array as="points">
              <mxPoint x="130" y="128" />
            </Array>
          </mxGeometry>
        </mxCell>
        <mxCell id="OW4Vf64IC7HSJz9U2EWm-16" value="" style="endArrow=classic;html=1;rounded=0;fontFamily=Helvetica;fontSize=12;fontColor=default;" edge="1" parent="1">
          <mxGeometry relative="1" as="geometry">
            <mxPoint x="130" y="160" as="sourcePoint" />
            <mxPoint x="300" y="160" as="targetPoint" />
          </mxGeometry>
        </mxCell>
        <mxCell id="OW4Vf64IC7HSJz9U2EWm-17" value="Label" style="edgeLabel;resizable=0;html=1;align=center;verticalAlign=middle;strokeColor=default;fontFamily=Helvetica;fontSize=12;fontColor=default;fillColor=default;" connectable="0" vertex="1" parent="OW4Vf64IC7HSJz9U2EWm-16">
          <mxGeometry relative="1" as="geometry" />
        </mxCell>
        <mxCell id="OW4Vf64IC7HSJz9U2EWm-18" value="input(&quot;hitelösszeg: &quot;)" style="edgeLabel;html=1;align=center;verticalAlign=middle;resizable=0;points=[];fontSize=12;fontFamily=Helvetica;fontColor=default;" vertex="1" connectable="0" parent="OW4Vf64IC7HSJz9U2EWm-16">
          <mxGeometry x="-0.0146" y="3" relative="1" as="geometry">
            <mxPoint as="offset" />
          </mxGeometry>
        </mxCell>
        <mxCell id="OW4Vf64IC7HSJz9U2EWm-20" value="" style="endArrow=classic;html=1;rounded=0;fontFamily=Helvetica;fontSize=12;fontColor=default;" edge="1" parent="1">
          <mxGeometry relative="1" as="geometry">
            <mxPoint x="300" y="190" as="sourcePoint" />
            <mxPoint x="130" y="190" as="targetPoint" />
          </mxGeometry>
        </mxCell>
        <mxCell id="OW4Vf64IC7HSJz9U2EWm-21" value="Label" style="edgeLabel;resizable=0;html=1;align=center;verticalAlign=middle;strokeColor=default;fontFamily=Helvetica;fontSize=12;fontColor=default;fillColor=default;" connectable="0" vertex="1" parent="OW4Vf64IC7HSJz9U2EWm-20">
          <mxGeometry relative="1" as="geometry" />
        </mxCell>
        <mxCell id="OW4Vf64IC7HSJz9U2EWm-22" value="Response" style="edgeLabel;html=1;align=center;verticalAlign=middle;resizable=0;points=[];fontSize=12;fontFamily=Helvetica;fontColor=default;" vertex="1" connectable="0" parent="OW4Vf64IC7HSJz9U2EWm-20">
          <mxGeometry x="-0.0134" y="3" relative="1" as="geometry">
            <mxPoint as="offset" />
          </mxGeometry>
        </mxCell>
        <mxCell id="OW4Vf64IC7HSJz9U2EWm-27" value="" style="endArrow=classic;html=1;rounded=0;fontFamily=Helvetica;fontSize=12;fontColor=default;" edge="1" parent="1">
          <mxGeometry relative="1" as="geometry">
            <mxPoint x="130" y="240" as="sourcePoint" />
            <mxPoint x="300" y="240" as="targetPoint" />
          </mxGeometry>
        </mxCell>
        <mxCell id="OW4Vf64IC7HSJz9U2EWm-28" value="Label" style="edgeLabel;resizable=0;html=1;align=center;verticalAlign=middle;strokeColor=default;fontFamily=Helvetica;fontSize=12;fontColor=default;fillColor=default;" connectable="0" vertex="1" parent="OW4Vf64IC7HSJz9U2EWm-27">
          <mxGeometry relative="1" as="geometry" />
        </mxCell>
        <mxCell id="OW4Vf64IC7HSJz9U2EWm-29" value="input(&quot;kamatláb: &quot;)" style="edgeLabel;html=1;align=center;verticalAlign=middle;resizable=0;points=[];fontSize=12;fontFamily=Helvetica;fontColor=default;" vertex="1" connectable="0" parent="OW4Vf64IC7HSJz9U2EWm-27">
          <mxGeometry x="-0.0146" y="3" relative="1" as="geometry">
            <mxPoint as="offset" />
          </mxGeometry>
        </mxCell>
        <mxCell id="OW4Vf64IC7HSJz9U2EWm-30" value="" style="endArrow=classic;html=1;rounded=0;fontFamily=Helvetica;fontSize=12;fontColor=default;" edge="1" parent="1">
          <mxGeometry relative="1" as="geometry">
            <mxPoint x="300" y="270" as="sourcePoint" />
            <mxPoint x="130" y="270" as="targetPoint" />
          </mxGeometry>
        </mxCell>
        <mxCell id="OW4Vf64IC7HSJz9U2EWm-31" value="Label" style="edgeLabel;resizable=0;html=1;align=center;verticalAlign=middle;strokeColor=default;fontFamily=Helvetica;fontSize=12;fontColor=default;fillColor=default;" connectable="0" vertex="1" parent="OW4Vf64IC7HSJz9U2EWm-30">
          <mxGeometry relative="1" as="geometry" />
        </mxCell>
        <mxCell id="OW4Vf64IC7HSJz9U2EWm-32" value="Response" style="edgeLabel;html=1;align=center;verticalAlign=middle;resizable=0;points=[];fontSize=12;fontFamily=Helvetica;fontColor=default;" vertex="1" connectable="0" parent="OW4Vf64IC7HSJz9U2EWm-30">
          <mxGeometry x="-0.0134" y="3" relative="1" as="geometry">
            <mxPoint as="offset" />
          </mxGeometry>
        </mxCell>
        <mxCell id="OW4Vf64IC7HSJz9U2EWm-33" value="" style="endArrow=classic;html=1;rounded=0;fontFamily=Helvetica;fontSize=12;fontColor=default;" edge="1" parent="1">
          <mxGeometry relative="1" as="geometry">
            <mxPoint x="130" y="310" as="sourcePoint" />
            <mxPoint x="300" y="310" as="targetPoint" />
          </mxGeometry>
        </mxCell>
        <mxCell id="OW4Vf64IC7HSJz9U2EWm-34" value="Label" style="edgeLabel;resizable=0;html=1;align=center;verticalAlign=middle;strokeColor=default;fontFamily=Helvetica;fontSize=12;fontColor=default;fillColor=default;" connectable="0" vertex="1" parent="OW4Vf64IC7HSJz9U2EWm-33">
          <mxGeometry relative="1" as="geometry" />
        </mxCell>
        <mxCell id="OW4Vf64IC7HSJz9U2EWm-35" value="input(&quot;hitelidő: &quot;)" style="edgeLabel;html=1;align=center;verticalAlign=middle;resizable=0;points=[];fontSize=12;fontFamily=Helvetica;fontColor=default;" vertex="1" connectable="0" parent="OW4Vf64IC7HSJz9U2EWm-33">
          <mxGeometry x="-0.0146" y="3" relative="1" as="geometry">
            <mxPoint as="offset" />
          </mxGeometry>
        </mxCell>
        <mxCell id="OW4Vf64IC7HSJz9U2EWm-36" value="" style="endArrow=classic;html=1;rounded=0;fontFamily=Helvetica;fontSize=12;fontColor=default;" edge="1" parent="1">
          <mxGeometry relative="1" as="geometry">
            <mxPoint x="300" y="350" as="sourcePoint" />
            <mxPoint x="130" y="350" as="targetPoint" />
          </mxGeometry>
        </mxCell>
        <mxCell id="OW4Vf64IC7HSJz9U2EWm-37" value="Label" style="edgeLabel;resizable=0;html=1;align=center;verticalAlign=middle;strokeColor=default;fontFamily=Helvetica;fontSize=12;fontColor=default;fillColor=default;" connectable="0" vertex="1" parent="OW4Vf64IC7HSJz9U2EWm-36">
          <mxGeometry relative="1" as="geometry" />
        </mxCell>
        <mxCell id="OW4Vf64IC7HSJz9U2EWm-38" value="Response" style="edgeLabel;html=1;align=center;verticalAlign=middle;resizable=0;points=[];fontSize=12;fontFamily=Helvetica;fontColor=default;" vertex="1" connectable="0" parent="OW4Vf64IC7HSJz9U2EWm-36">
          <mxGeometry x="-0.0134" y="3" relative="1" as="geometry">
            <mxPoint as="offset" />
          </mxGeometry>
        </mxCell>
        <mxCell id="OW4Vf64IC7HSJz9U2EWm-40" value="" style="endArrow=classic;html=1;rounded=0;fontFamily=Helvetica;fontSize=12;fontColor=default;" edge="1" parent="1">
          <mxGeometry relative="1" as="geometry">
            <mxPoint x="130" y="400" as="sourcePoint" />
            <mxPoint x="470" y="400" as="targetPoint" />
          </mxGeometry>
        </mxCell>
        <mxCell id="OW4Vf64IC7HSJz9U2EWm-41" value="Label" style="edgeLabel;resizable=0;html=1;align=center;verticalAlign=middle;strokeColor=default;fontFamily=Helvetica;fontSize=12;fontColor=default;fillColor=default;" connectable="0" vertex="1" parent="OW4Vf64IC7HSJz9U2EWm-40">
          <mxGeometry relative="1" as="geometry" />
        </mxCell>
        <mxCell id="OW4Vf64IC7HSJz9U2EWm-42" value="validate_data(principal, rate, time)" style="edgeLabel;html=1;align=center;verticalAlign=middle;resizable=0;points=[];fontSize=12;fontFamily=Helvetica;fontColor=default;" vertex="1" connectable="0" parent="OW4Vf64IC7HSJz9U2EWm-40">
          <mxGeometry x="0.0246" y="-1" relative="1" as="geometry">
            <mxPoint as="offset" />
          </mxGeometry>
        </mxCell>
        <mxCell id="OW4Vf64IC7HSJz9U2EWm-44" value="" style="endArrow=classic;html=1;rounded=0;fontFamily=Helvetica;fontSize=12;fontColor=default;" edge="1" parent="1">
          <mxGeometry relative="1" as="geometry">
            <mxPoint x="470" y="430" as="sourcePoint" />
            <mxPoint x="130" y="430" as="targetPoint" />
          </mxGeometry>
        </mxCell>
        <mxCell id="OW4Vf64IC7HSJz9U2EWm-45" value="Label" style="edgeLabel;resizable=0;html=1;align=center;verticalAlign=middle;strokeColor=default;fontFamily=Helvetica;fontSize=12;fontColor=default;fillColor=default;" connectable="0" vertex="1" parent="OW4Vf64IC7HSJz9U2EWm-44">
          <mxGeometry relative="1" as="geometry" />
        </mxCell>
        <mxCell id="OW4Vf64IC7HSJz9U2EWm-46" value="response (r)" style="edgeLabel;html=1;align=center;verticalAlign=middle;resizable=0;points=[];fontSize=12;fontFamily=Helvetica;fontColor=default;" vertex="1" connectable="0" parent="OW4Vf64IC7HSJz9U2EWm-44">
          <mxGeometry x="-0.0106" y="-2" relative="1" as="geometry">
            <mxPoint as="offset" />
          </mxGeometry>
        </mxCell>
        <mxCell id="OW4Vf64IC7HSJz9U2EWm-52" value="" style="endArrow=none;dashed=1;html=1;dashPattern=1 3;strokeWidth=2;rounded=0;fontFamily=Helvetica;fontSize=12;fontColor=default;exitX=0;exitY=0.724;exitDx=0;exitDy=0;entryX=1.002;entryY=0.718;entryDx=0;entryDy=0;entryPerimeter=0;exitPerimeter=0;" edge="1" parent="1" source="OW4Vf64IC7HSJz9U2EWm-50" target="OW4Vf64IC7HSJz9U2EWm-50">
          <mxGeometry width="50" height="50" relative="1" as="geometry">
            <mxPoint x="550" y="470" as="sourcePoint" />
            <mxPoint x="671" y="530" as="targetPoint" />
          </mxGeometry>
        </mxCell>
        <mxCell id="OW4Vf64IC7HSJz9U2EWm-53" value="r = true" style="rounded=0;whiteSpace=wrap;html=1;strokeColor=default;fontFamily=Helvetica;fontSize=12;fontColor=default;fillColor=default;" vertex="1" parent="1">
          <mxGeometry x="330" y="470" width="110" height="30" as="geometry" />
        </mxCell>
        <mxCell id="OW4Vf64IC7HSJz9U2EWm-54" value="r = false" style="rounded=0;whiteSpace=wrap;html=1;strokeColor=default;fontFamily=Helvetica;fontSize=12;fontColor=default;fillColor=default;" vertex="1" parent="1">
          <mxGeometry x="330" y="630" width="110" height="30" as="geometry" />
        </mxCell>
        <mxCell id="OW4Vf64IC7HSJz9U2EWm-55" value="" style="endArrow=classic;html=1;rounded=0;fontFamily=Helvetica;fontSize=12;fontColor=default;" edge="1" parent="1">
          <mxGeometry relative="1" as="geometry">
            <mxPoint x="130" y="660" as="sourcePoint" />
            <mxPoint x="300" y="660" as="targetPoint" />
          </mxGeometry>
        </mxCell>
        <mxCell id="OW4Vf64IC7HSJz9U2EWm-56" value="Label" style="edgeLabel;resizable=0;html=1;align=center;verticalAlign=middle;strokeColor=default;fontFamily=Helvetica;fontSize=12;fontColor=default;fillColor=default;" connectable="0" vertex="1" parent="OW4Vf64IC7HSJz9U2EWm-55">
          <mxGeometry relative="1" as="geometry" />
        </mxCell>
        <mxCell id="OW4Vf64IC7HSJz9U2EWm-57" value="print(&quot;B pont&quot;)" style="edgeLabel;html=1;align=center;verticalAlign=middle;resizable=0;points=[];fontSize=12;fontFamily=Helvetica;fontColor=default;" vertex="1" connectable="0" parent="OW4Vf64IC7HSJz9U2EWm-55">
          <mxGeometry x="-0.0375" y="3" relative="1" as="geometry">
            <mxPoint as="offset" />
          </mxGeometry>
        </mxCell>
        <mxCell id="OW4Vf64IC7HSJz9U2EWm-58" value="" style="endArrow=classic;html=1;rounded=0;fontFamily=Helvetica;fontSize=12;fontColor=default;" edge="1" parent="1">
          <mxGeometry relative="1" as="geometry">
            <mxPoint x="130" y="530" as="sourcePoint" />
            <mxPoint x="300" y="530" as="targetPoint" />
          </mxGeometry>
        </mxCell>
        <mxCell id="OW4Vf64IC7HSJz9U2EWm-59" value="Label" style="edgeLabel;resizable=0;html=1;align=center;verticalAlign=middle;strokeColor=default;fontFamily=Helvetica;fontSize=12;fontColor=default;fillColor=default;" connectable="0" vertex="1" parent="OW4Vf64IC7HSJz9U2EWm-58">
          <mxGeometry relative="1" as="geometry" />
        </mxCell>
        <mxCell id="OW4Vf64IC7HSJz9U2EWm-60" value="print(&quot;fizetendő összeged&quot;)" style="edgeLabel;html=1;align=center;verticalAlign=middle;resizable=0;points=[];fontSize=12;fontFamily=Helvetica;fontColor=default;" vertex="1" connectable="0" parent="OW4Vf64IC7HSJz9U2EWm-58">
          <mxGeometry x="-0.0375" y="3" relative="1" as="geometry">
            <mxPoint as="offset" />
          </mxGeometry>
        </mxCell>
        <mxCell id="OW4Vf64IC7HSJz9U2EWm-61" value="" style="endArrow=classic;html=1;rounded=0;fontFamily=Helvetica;fontSize=12;fontColor=default;" edge="1" parent="1">
          <mxGeometry relative="1" as="geometry">
            <mxPoint x="300" y="560" as="sourcePoint" />
            <mxPoint x="640" y="560" as="targetPoint" />
          </mxGeometry>
        </mxCell>
        <mxCell id="OW4Vf64IC7HSJz9U2EWm-62" value="Label" style="edgeLabel;resizable=0;html=1;align=center;verticalAlign=middle;strokeColor=default;fontFamily=Helvetica;fontSize=12;fontColor=default;fillColor=default;" connectable="0" vertex="1" parent="OW4Vf64IC7HSJz9U2EWm-61">
          <mxGeometry relative="1" as="geometry" />
        </mxCell>
        <mxCell id="OW4Vf64IC7HSJz9U2EWm-63" value="calculate_interest(principal, rate, time)" style="edgeLabel;html=1;align=center;verticalAlign=middle;resizable=0;points=[];fontSize=12;fontFamily=Helvetica;fontColor=default;" vertex="1" connectable="0" parent="OW4Vf64IC7HSJz9U2EWm-61">
          <mxGeometry x="0.019" y="-1" relative="1" as="geometry">
            <mxPoint as="offset" />
          </mxGeometry>
        </mxCell>
        <mxCell id="OW4Vf64IC7HSJz9U2EWm-64" value="" style="endArrow=classic;html=1;rounded=0;fontFamily=Helvetica;fontSize=12;fontColor=default;" edge="1" parent="1">
          <mxGeometry relative="1" as="geometry">
            <mxPoint x="630" y="590" as="sourcePoint" />
            <mxPoint x="300" y="590" as="targetPoint" />
          </mxGeometry>
        </mxCell>
        <mxCell id="OW4Vf64IC7HSJz9U2EWm-65" value="Label" style="edgeLabel;resizable=0;html=1;align=center;verticalAlign=middle;strokeColor=default;fontFamily=Helvetica;fontSize=12;fontColor=default;fillColor=default;" connectable="0" vertex="1" parent="OW4Vf64IC7HSJz9U2EWm-64">
          <mxGeometry relative="1" as="geometry" />
        </mxCell>
        <mxCell id="OW4Vf64IC7HSJz9U2EWm-66" value="Response" style="edgeLabel;html=1;align=center;verticalAlign=middle;resizable=0;points=[];fontSize=12;fontFamily=Helvetica;fontColor=default;" vertex="1" connectable="0" parent="OW4Vf64IC7HSJz9U2EWm-64">
          <mxGeometry x="-0.0009" y="-1" relative="1" as="geometry">
            <mxPoint as="offset" />
          </mxGeometry>
        </mxCell>
        <mxCell id="OW4Vf64IC7HSJz9U2EWm-67" value="calculate()" style="text;html=1;strokeColor=none;fillColor=none;align=center;verticalAlign=middle;whiteSpace=wrap;rounded=0;fontSize=12;fontFamily=Helvetica;fontColor=default;" vertex="1" parent="1">
          <mxGeometry x="60" y="100" width="60" height="30" as="geometry" />
        </mxCell>
      </root>
    </mxGraphModel>
  </diagram>
</mxfile>
